<svg width="897" height="437" fill="none" xmlns="http://www.w3.org/2000/svg">
  <path fill-rule="evenodd" clip-rule="evenodd" d="M11 45.94c9.207 28.915 213.825 150.635 319.795 149.306 57.736-.724 86.644 37.716 86.452 102.561l-96.468 74.732.264 56.329 433.101-.052-.115-51.587-96.138-79.342c2.659-149.97 100.831-215.275 231.033-224.373l.115-65.414L330.532 8l.148 14.114h-52.91l-.187 23.811L11 45.941Z" fill="#000" stroke="#fff" stroke-width="15.178"/>
  <path fill-rule="evenodd" clip-rule="evenodd" d="m322.195 372.025 128.719.976.231 55.844" fill="#000"/>
  <path d="m322.195 372.025 128.719.976.231 55.844" stroke="#fff" stroke-width="15.178"/>
  <path fill-rule="evenodd" clip-rule="evenodd" d="m753.986 377.179-129.61.112-.082 51.522" fill="#000"/>
  <path d="m753.986 377.179-129.61.112-.082 51.522" stroke="#fff" stroke-width="15.178"/>
  <path fill-rule="evenodd" clip-rule="evenodd" d="M448.608 376.939c56.164-60.004 123.39-49.07 175.534.608Z" fill="#000"/>
  <path d="M448.608 376.939c56.164-60.004 123.39-49.07 175.534.608" stroke="#fff" stroke-width="15.178"/>
  <path fill-rule="evenodd" clip-rule="evenodd" d="M277.912 27.088v102.705Z" fill="#000"/>
  <path d="M277.912 27.088v102.705" stroke="#fff" stroke-width="15.178"/>
  <path fill-rule="evenodd" clip-rule="evenodd" d="m330.488 27.088.296 167.852Z" fill="#000"/>
  <path d="m330.488 27.088.296 167.852" stroke="#fff" stroke-width="15.178"/>
  <path fill-rule="evenodd" clip-rule="evenodd" d="m662.84 260.396-62.582.115Z" fill="#000"/>
  <path d="m662.84 260.396-62.582.115" stroke="#fff" stroke-width="15.178"/>
  <path fill-rule="evenodd" clip-rule="evenodd" d="m657.931 298.149-38.811-.112Z" fill="#000"/>
  <path d="m657.931 298.149-38.811-.112" stroke="#fff" stroke-width="15.178"/>
</svg>
